# xmcd
#
# Track frame offsets: 
#        182
#        17575
#        42655
#
# Disc length: 930 seconds
#
# Revision: 0
# Processed by: cddbd v1.5.2PL0 Copyright (c) Steve Scherf et al.
# Submitted via: ExactAudioCopyFreeDBPlugin 1.0
#
DISCID=1e03a003
DTITLE=Keith Sweat - Make You Sweat (Promo CDM)
DYEAR=1990
DGENRE=Funk
TTITLE0=Make You Sweat (Edit Of LP Version)
TTITLE1=Make You Sweat (Radio Version)
TTITLE2=Make You Sweat (Extended Version)
EXTD=
EXTT0=
EXTT1=
EXTT2=
PLAYORDER=
